<mxfile host="Electron" agent="Mozilla/5.0 (Windows NT 10.0; Win64; x64) AppleWebKit/537.36 (KHTML, like Gecko) draw.io/28.0.6 Chrome/138.0.7204.100 Electron/37.2.3 Safari/537.36" version="28.0.6">
  <diagram name="Phonebook Microservices with Full API Flow" id="Fu5HfDHpJlhOvSnHhuJR">
    <mxGraphModel dx="2066" dy="1202" grid="1" gridSize="10" guides="1" tooltips="1" connect="1" arrows="1" fold="1" page="1" pageScale="1" pageWidth="850" pageHeight="1100" math="0" shadow="0">
      <root>
        <mxCell id="0" />
        <mxCell id="1" parent="0" />
        <mxCell id="MmdyzBdWTJbI9Cpfh6VE-92" value="" style="edgeStyle=orthogonalEdgeStyle;rounded=0;orthogonalLoop=1;jettySize=auto;html=1;" parent="1" source="MmdyzBdWTJbI9Cpfh6VE-87" target="MmdyzBdWTJbI9Cpfh6VE-91" edge="1">
          <mxGeometry relative="1" as="geometry" />
        </mxCell>
        <mxCell id="MmdyzBdWTJbI9Cpfh6VE-87" value="&lt;span style=&quot;text-wrap-mode: nowrap;&quot;&gt;&lt;font style=&quot;font-size: 13px;&quot;&gt;Phonebook Web&lt;/font&gt;&lt;/span&gt;&lt;div&gt;&lt;span style=&quot;text-wrap-mode: nowrap;&quot;&gt;&lt;font style=&quot;font-size: 13px;&quot;&gt;Client&lt;/font&gt;&lt;/span&gt;&lt;/div&gt;" style="ellipse;whiteSpace=wrap;html=1;fillColor=#fad9d5;strokeColor=#ae4132;" parent="1" vertex="1">
          <mxGeometry x="42" y="89" width="120" height="80" as="geometry" />
        </mxCell>
        <mxCell id="MmdyzBdWTJbI9Cpfh6VE-94" value="" style="edgeStyle=orthogonalEdgeStyle;rounded=0;orthogonalLoop=1;jettySize=auto;html=1;" parent="1" source="MmdyzBdWTJbI9Cpfh6VE-91" target="MmdyzBdWTJbI9Cpfh6VE-93" edge="1">
          <mxGeometry relative="1" as="geometry" />
        </mxCell>
        <mxCell id="MmdyzBdWTJbI9Cpfh6VE-91" value="&lt;div&gt;&lt;div&gt;&lt;span style=&quot;text-wrap-mode: nowrap;&quot;&gt;&lt;font style=&quot;font-size: 13px;&quot;&gt;post /api/contacts&lt;/font&gt;&lt;/span&gt;&lt;/div&gt;&lt;div&gt;&lt;span style=&quot;text-wrap-mode: nowrap;&quot;&gt;&lt;font style=&quot;font-size: 13px;&quot;&gt;get /api/contacts&amp;nbsp;&lt;/font&gt;&lt;/span&gt;&lt;/div&gt;&lt;div&gt;&lt;span style=&quot;text-wrap-mode: nowrap;&quot;&gt;&lt;font style=&quot;font-size: 13px;&quot;&gt;get /api/contacts/{id}&lt;/font&gt;&lt;/span&gt;&lt;/div&gt;&lt;div&gt;&lt;span style=&quot;text-wrap-mode: nowrap;&quot;&gt;&lt;font style=&quot;font-size: 13px;&quot;&gt;delete /api/contacts/{id}&lt;/font&gt;&lt;/span&gt;&lt;/div&gt;&lt;div&gt;&lt;span style=&quot;text-wrap-mode: nowrap;&quot;&gt;&lt;font style=&quot;font-size: 13px;&quot;&gt;&lt;br&gt;&lt;/font&gt;&lt;/span&gt;&lt;/div&gt;&lt;div&gt;&lt;span style=&quot;text-wrap-mode: nowrap;&quot;&gt;&lt;font style=&quot;font-size: 13px;&quot;&gt;post /api/contacts/{id}/details&lt;/font&gt;&lt;/span&gt;&lt;/div&gt;&lt;div&gt;&lt;span style=&quot;text-wrap-mode: nowrap;&quot;&gt;&lt;font style=&quot;font-size: 13px;&quot;&gt;get /api/contacts/{id}/details&lt;/font&gt;&lt;/span&gt;&lt;/div&gt;&lt;div&gt;&lt;span style=&quot;text-wrap-mode: nowrap;&quot;&gt;&lt;font style=&quot;font-size: 13px;&quot;&gt;delete /api/contacts/{id}/details&lt;/font&gt;&lt;/span&gt;&lt;/div&gt;&lt;/div&gt;" style="rounded=1;whiteSpace=wrap;html=1;" parent="1" vertex="1">
          <mxGeometry x="220" y="59" width="260" height="140" as="geometry" />
        </mxCell>
        <mxCell id="MmdyzBdWTJbI9Cpfh6VE-96" style="edgeStyle=orthogonalEdgeStyle;rounded=0;orthogonalLoop=1;jettySize=auto;html=1;entryX=-0.013;entryY=0.646;entryDx=0;entryDy=0;entryPerimeter=0;" parent="1" source="MmdyzBdWTJbI9Cpfh6VE-93" target="MmdyzBdWTJbI9Cpfh6VE-95" edge="1">
          <mxGeometry relative="1" as="geometry" />
        </mxCell>
        <mxCell id="MmdyzBdWTJbI9Cpfh6VE-93" value="&lt;font style=&quot;font-size: 13px;&quot;&gt;Contact Management&lt;/font&gt;&lt;div&gt;&lt;font style=&quot;font-size: 13px;&quot;&gt;&amp;nbsp;Api&lt;/font&gt;&lt;/div&gt;" style="whiteSpace=wrap;html=1;rounded=1;fillColor=#fad9d5;strokeColor=#ae4132;" parent="1" vertex="1">
          <mxGeometry x="577" y="84" width="205" height="90" as="geometry" />
        </mxCell>
        <mxCell id="MmdyzBdWTJbI9Cpfh6VE-95" value="&lt;font style=&quot;font-size: 13px;&quot;&gt;Contact Management&lt;/font&gt;&lt;div&gt;&lt;font style=&quot;font-size: 13px;&quot;&gt;&amp;nbsp;&amp;nbsp;Database&lt;/font&gt;&lt;/div&gt;" style="shape=datastore;whiteSpace=wrap;html=1;fillColor=#f8cecc;strokeColor=#b85450;" parent="1" vertex="1">
          <mxGeometry x="869" y="45" width="141" height="130" as="geometry" />
        </mxCell>
        <mxCell id="MmdyzBdWTJbI9Cpfh6VE-123" value="" style="edgeStyle=orthogonalEdgeStyle;rounded=0;orthogonalLoop=1;jettySize=auto;html=1;dashed=1;exitX=1;exitY=0.5;exitDx=0;exitDy=0;" parent="1" source="MmdyzBdWTJbI9Cpfh6VE-104" target="MmdyzBdWTJbI9Cpfh6VE-122" edge="1">
          <mxGeometry relative="1" as="geometry">
            <Array as="points">
              <mxPoint x="1540" y="421" />
              <mxPoint x="1540" y="420" />
              <mxPoint x="1570" y="420" />
            </Array>
          </mxGeometry>
        </mxCell>
        <mxCell id="MmdyzBdWTJbI9Cpfh6VE-134" value="" style="edgeStyle=orthogonalEdgeStyle;rounded=0;orthogonalLoop=1;jettySize=auto;html=1;dashed=1;" parent="1" source="MmdyzBdWTJbI9Cpfh6VE-104" target="MmdyzBdWTJbI9Cpfh6VE-133" edge="1">
          <mxGeometry relative="1" as="geometry" />
        </mxCell>
        <mxCell id="MmdyzBdWTJbI9Cpfh6VE-104" value="&lt;font style=&quot;font-size: 13px;&quot;&gt;RabbitMQ Message Queues&lt;/font&gt;" style="shape=datastore;whiteSpace=wrap;html=1;fillColor=#fad7ac;strokeColor=#b46504;" parent="1" vertex="1">
          <mxGeometry x="1238" y="411" width="200" height="130" as="geometry" />
        </mxCell>
        <mxCell id="MmdyzBdWTJbI9Cpfh6VE-108" value="" style="edgeStyle=orthogonalEdgeStyle;rounded=0;orthogonalLoop=1;jettySize=auto;html=1;" parent="1" source="MmdyzBdWTJbI9Cpfh6VE-109" target="MmdyzBdWTJbI9Cpfh6VE-111" edge="1">
          <mxGeometry relative="1" as="geometry" />
        </mxCell>
        <mxCell id="MmdyzBdWTJbI9Cpfh6VE-109" value="&lt;span style=&quot;text-wrap-mode: nowrap;&quot;&gt;&lt;font style=&quot;font-size: 13px;&quot;&gt;Phonebook Web&lt;/font&gt;&lt;/span&gt;&lt;div&gt;&lt;span style=&quot;text-wrap-mode: nowrap;&quot;&gt;&lt;font style=&quot;font-size: 13px;&quot;&gt;Client&lt;/font&gt;&lt;/span&gt;&lt;/div&gt;" style="ellipse;whiteSpace=wrap;html=1;fillColor=#b1ddf0;strokeColor=#10739e;" parent="1" vertex="1">
          <mxGeometry x="41" y="796" width="120" height="80" as="geometry" />
        </mxCell>
        <mxCell id="MmdyzBdWTJbI9Cpfh6VE-110" value="" style="edgeStyle=orthogonalEdgeStyle;rounded=0;orthogonalLoop=1;jettySize=auto;html=1;" parent="1" source="MmdyzBdWTJbI9Cpfh6VE-111" target="MmdyzBdWTJbI9Cpfh6VE-113" edge="1">
          <mxGeometry relative="1" as="geometry" />
        </mxCell>
        <mxCell id="MmdyzBdWTJbI9Cpfh6VE-111" value="&lt;div&gt;&lt;span style=&quot;text-wrap-mode: nowrap;&quot;&gt;&lt;font style=&quot;font-size: 13px;&quot;&gt;post /api/reports&lt;/font&gt;&lt;/span&gt;&lt;/div&gt;&lt;div&gt;&lt;span style=&quot;text-wrap-mode: nowrap;&quot;&gt;&lt;font style=&quot;font-size: 13px;&quot;&gt;get /api/reports&lt;/font&gt;&lt;/span&gt;&lt;/div&gt;&lt;div&gt;&lt;span style=&quot;text-wrap-mode: nowrap;&quot;&gt;&lt;font style=&quot;font-size: 13px;&quot;&gt;get /api/reports/{id}&lt;/font&gt;&lt;/span&gt;&lt;/div&gt;&lt;div&gt;&lt;span style=&quot;text-wrap-mode: nowrap;&quot;&gt;&lt;font style=&quot;font-size: 13px;&quot;&gt;&lt;br&gt;&lt;/font&gt;&lt;/span&gt;&lt;/div&gt;&lt;div&gt;&lt;span style=&quot;text-wrap-mode: nowrap;&quot;&gt;&lt;font style=&quot;font-size: 13px;&quot;&gt;get api/reports/{id}/data&lt;/font&gt;&lt;/span&gt;&lt;/div&gt;" style="rounded=1;whiteSpace=wrap;html=1;" parent="1" vertex="1">
          <mxGeometry x="238" y="782" width="240" height="110" as="geometry" />
        </mxCell>
        <mxCell id="MmdyzBdWTJbI9Cpfh6VE-112" style="edgeStyle=orthogonalEdgeStyle;rounded=0;orthogonalLoop=1;jettySize=auto;html=1;entryX=0;entryY=0.5;entryDx=0;entryDy=0;" parent="1" source="MmdyzBdWTJbI9Cpfh6VE-113" target="MmdyzBdWTJbI9Cpfh6VE-114" edge="1">
          <mxGeometry relative="1" as="geometry" />
        </mxCell>
        <mxCell id="MmdyzBdWTJbI9Cpfh6VE-113" value="&lt;font style=&quot;font-size: 13px;&quot;&gt;Report Management&amp;nbsp;&lt;/font&gt;&lt;div&gt;&lt;font style=&quot;font-size: 13px;&quot;&gt;Api&lt;/font&gt;&lt;/div&gt;" style="whiteSpace=wrap;html=1;rounded=1;fillColor=#dae8fc;strokeColor=#6c8ebf;" parent="1" vertex="1">
          <mxGeometry x="549" y="792" width="205" height="90" as="geometry" />
        </mxCell>
        <mxCell id="MmdyzBdWTJbI9Cpfh6VE-114" value="&lt;font style=&quot;font-size: 13px;&quot;&gt;Contact Management&lt;/font&gt;&lt;div&gt;&lt;font style=&quot;font-size: 13px;&quot;&gt;Database&lt;/font&gt;&lt;/div&gt;" style="shape=datastore;whiteSpace=wrap;html=1;fillColor=#dae8fc;strokeColor=#6c8ebf;" parent="1" vertex="1">
          <mxGeometry x="867" y="772" width="150" height="130" as="geometry" />
        </mxCell>
        <mxCell id="MmdyzBdWTJbI9Cpfh6VE-115" value="&lt;font style=&quot;font-size: 13px;&quot;&gt;ReportDataRequestedEvent&amp;nbsp;&lt;/font&gt;" style="whiteSpace=wrap;html=1;rounded=1;fillColor=#f5f5f5;gradientColor=#b3b3b3;strokeColor=#666666;" parent="1" vertex="1">
          <mxGeometry x="754" y="551" width="205" height="90" as="geometry" />
        </mxCell>
        <mxCell id="MmdyzBdWTJbI9Cpfh6VE-129" style="edgeStyle=orthogonalEdgeStyle;rounded=0;orthogonalLoop=1;jettySize=auto;html=1;entryX=1;entryY=0.5;entryDx=0;entryDy=0;" parent="1" source="MmdyzBdWTJbI9Cpfh6VE-118" target="MmdyzBdWTJbI9Cpfh6VE-95" edge="1">
          <mxGeometry relative="1" as="geometry">
            <Array as="points">
              <mxPoint x="1300" y="109" />
              <mxPoint x="1300" y="109" />
            </Array>
          </mxGeometry>
        </mxCell>
        <mxCell id="MmdyzBdWTJbI9Cpfh6VE-148" style="edgeStyle=orthogonalEdgeStyle;rounded=0;orthogonalLoop=1;jettySize=auto;html=1;entryX=0.5;entryY=0;entryDx=0;entryDy=0;" parent="1" source="MmdyzBdWTJbI9Cpfh6VE-118" target="MmdyzBdWTJbI9Cpfh6VE-126" edge="1">
          <mxGeometry relative="1" as="geometry" />
        </mxCell>
        <mxCell id="MmdyzBdWTJbI9Cpfh6VE-118" value="&lt;font style=&quot;font-size: 13px;&quot;&gt;Contact Managment&lt;/font&gt;&lt;div&gt;&lt;font style=&quot;font-size: 13px;&quot;&gt;Messaging&amp;nbsp;&lt;span style=&quot;background-color: transparent; color: light-dark(rgb(0, 0, 0), rgb(255, 255, 255));&quot;&gt;Service&lt;/span&gt;&lt;/font&gt;&lt;/div&gt;" style="whiteSpace=wrap;html=1;rounded=1;fillColor=#fad9d5;strokeColor=#ae4132;" parent="1" vertex="1">
          <mxGeometry x="1243" y="60" width="205" height="90" as="geometry" />
        </mxCell>
        <mxCell id="MmdyzBdWTJbI9Cpfh6VE-122" value="&lt;font style=&quot;font-size: 13px;&quot;&gt;&lt;span&gt;&lt;br&gt;&lt;span style=&quot;color: rgb(0, 0, 0); font-family: Helvetica; font-style: normal; font-variant-ligatures: normal; font-variant-caps: normal; font-weight: 400; letter-spacing: normal; orphans: 2; text-align: center; text-indent: 0px; text-transform: none; widows: 2; word-spacing: 0px; -webkit-text-stroke-width: 0px; white-space: normal; text-decoration-thickness: initial; text-decoration-style: initial; text-decoration-color: initial; float: none; display: inline !important;&quot;&gt;ReportDataRequestedEvent&lt;/span&gt;&lt;/span&gt;&lt;br&gt;&lt;/font&gt;" style="whiteSpace=wrap;html=1;fillColor=#f5f5f5;gradientColor=#b3b3b3;strokeColor=#666666;" parent="1" vertex="1">
          <mxGeometry x="1480" y="260" width="180" height="55" as="geometry" />
        </mxCell>
        <mxCell id="MmdyzBdWTJbI9Cpfh6VE-124" style="edgeStyle=orthogonalEdgeStyle;rounded=0;orthogonalLoop=1;jettySize=auto;html=1;entryX=1;entryY=0.5;entryDx=0;entryDy=0;dashed=1;" parent="1" source="MmdyzBdWTJbI9Cpfh6VE-122" target="MmdyzBdWTJbI9Cpfh6VE-118" edge="1">
          <mxGeometry relative="1" as="geometry">
            <Array as="points">
              <mxPoint x="1570" y="105" />
            </Array>
          </mxGeometry>
        </mxCell>
        <mxCell id="MmdyzBdWTJbI9Cpfh6VE-128" style="edgeStyle=orthogonalEdgeStyle;rounded=0;orthogonalLoop=1;jettySize=auto;html=1;entryX=0.567;entryY=0.015;entryDx=0;entryDy=0;entryPerimeter=0;" parent="1" source="MmdyzBdWTJbI9Cpfh6VE-126" target="MmdyzBdWTJbI9Cpfh6VE-104" edge="1">
          <mxGeometry relative="1" as="geometry">
            <Array as="points">
              <mxPoint x="1351" y="325" />
            </Array>
          </mxGeometry>
        </mxCell>
        <mxCell id="MmdyzBdWTJbI9Cpfh6VE-126" value="&lt;font style=&quot;font-size: 13px;&quot;&gt;ReportDataCreatedEvent&lt;/font&gt;" style="whiteSpace=wrap;html=1;rounded=1;fillColor=#f5f5f5;gradientColor=#b3b3b3;strokeColor=#666666;" parent="1" vertex="1">
          <mxGeometry x="1267" y="220" width="162.5" height="65" as="geometry" />
        </mxCell>
        <mxCell id="MmdyzBdWTJbI9Cpfh6VE-146" style="edgeStyle=orthogonalEdgeStyle;rounded=0;orthogonalLoop=1;jettySize=auto;html=1;entryX=1;entryY=0.5;entryDx=0;entryDy=0;" parent="1" source="MmdyzBdWTJbI9Cpfh6VE-130" target="MmdyzBdWTJbI9Cpfh6VE-114" edge="1">
          <mxGeometry relative="1" as="geometry" />
        </mxCell>
        <mxCell id="MmdyzBdWTJbI9Cpfh6VE-130" value="&lt;font style=&quot;font-size: 13px;&quot;&gt;Report&lt;span style=&quot;background-color: transparent; color: light-dark(rgb(0, 0, 0), rgb(255, 255, 255));&quot;&gt;&amp;nbsp;&lt;/span&gt;Management&lt;/font&gt;&lt;div&gt;&lt;font style=&quot;font-size: 13px;&quot;&gt;&lt;span style=&quot;background-color: transparent; color: light-dark(rgb(0, 0, 0), rgb(255, 255, 255));&quot;&gt;Messaging&amp;nbsp;&lt;/span&gt;&lt;span style=&quot;background-color: transparent; color: light-dark(rgb(0, 0, 0), rgb(255, 255, 255));&quot;&gt;Service&lt;/span&gt;&lt;/font&gt;&lt;/div&gt;" style="whiteSpace=wrap;html=1;rounded=1;fillColor=#dae8fc;strokeColor=#6c8ebf;" parent="1" vertex="1">
          <mxGeometry x="1241" y="792" width="205" height="90" as="geometry" />
        </mxCell>
        <mxCell id="MmdyzBdWTJbI9Cpfh6VE-133" value="&lt;font style=&quot;font-size: 13px;&quot;&gt;&lt;span&gt;&lt;br&gt;&lt;span style=&quot;color: rgb(0, 0, 0); font-family: Helvetica; font-style: normal; font-variant-ligatures: normal; font-variant-caps: normal; font-weight: 400; letter-spacing: normal; orphans: 2; text-align: center; text-indent: 0px; text-transform: none; widows: 2; word-spacing: 0px; -webkit-text-stroke-width: 0px; white-space: normal; text-decoration-thickness: initial; text-decoration-style: initial; text-decoration-color: initial; float: none; display: inline !important;&quot;&gt;ReportDataCreatedEvent&lt;/span&gt;&lt;/span&gt;&lt;br&gt;&lt;/font&gt;" style="whiteSpace=wrap;html=1;fillColor=#f5f5f5;gradientColor=#b3b3b3;strokeColor=#666666;" parent="1" vertex="1">
          <mxGeometry x="1248" y="619" width="180" height="65" as="geometry" />
        </mxCell>
        <mxCell id="MmdyzBdWTJbI9Cpfh6VE-138" value="&lt;font style=&quot;font-size: 14px;&quot;&gt;Synchronous&lt;/font&gt;" style="endArrow=classic;html=1;rounded=0;" parent="1" edge="1">
          <mxGeometry width="50" height="50" relative="1" as="geometry">
            <mxPoint x="150" y="972" as="sourcePoint" />
            <mxPoint x="330" y="972" as="targetPoint" />
          </mxGeometry>
        </mxCell>
        <mxCell id="MmdyzBdWTJbI9Cpfh6VE-139" value="" style="endArrow=classic;html=1;rounded=0;dashed=1;" parent="1" edge="1">
          <mxGeometry width="50" height="50" relative="1" as="geometry">
            <mxPoint x="150" y="1002" as="sourcePoint" />
            <mxPoint x="340" y="999" as="targetPoint" />
          </mxGeometry>
        </mxCell>
        <mxCell id="MmdyzBdWTJbI9Cpfh6VE-141" value="&lt;font style=&quot;font-size: 13px;&quot;&gt;Asynchronous&lt;/font&gt;" style="edgeLabel;html=1;align=center;verticalAlign=middle;resizable=0;points=[];" parent="MmdyzBdWTJbI9Cpfh6VE-139" vertex="1" connectable="0">
          <mxGeometry x="-0.0839" y="2" relative="1" as="geometry">
            <mxPoint as="offset" />
          </mxGeometry>
        </mxCell>
        <mxCell id="MmdyzBdWTJbI9Cpfh6VE-144" style="edgeStyle=orthogonalEdgeStyle;rounded=0;orthogonalLoop=1;jettySize=auto;html=1;entryX=0.384;entryY=0.993;entryDx=0;entryDy=0;entryPerimeter=0;" parent="1" source="MmdyzBdWTJbI9Cpfh6VE-113" target="MmdyzBdWTJbI9Cpfh6VE-115" edge="1">
          <mxGeometry relative="1" as="geometry" />
        </mxCell>
        <mxCell id="MmdyzBdWTJbI9Cpfh6VE-145" style="edgeStyle=orthogonalEdgeStyle;rounded=0;orthogonalLoop=1;jettySize=auto;html=1;entryX=0.333;entryY=0.972;entryDx=0;entryDy=0;entryPerimeter=0;" parent="1" source="MmdyzBdWTJbI9Cpfh6VE-115" target="MmdyzBdWTJbI9Cpfh6VE-104" edge="1">
          <mxGeometry relative="1" as="geometry">
            <Array as="points">
              <mxPoint x="1305" y="596" />
            </Array>
          </mxGeometry>
        </mxCell>
        <mxCell id="MmdyzBdWTJbI9Cpfh6VE-147" style="edgeStyle=orthogonalEdgeStyle;rounded=0;orthogonalLoop=1;jettySize=auto;html=1;entryX=0.473;entryY=0.037;entryDx=0;entryDy=0;entryPerimeter=0;dashed=1;" parent="1" source="MmdyzBdWTJbI9Cpfh6VE-133" target="MmdyzBdWTJbI9Cpfh6VE-130" edge="1">
          <mxGeometry relative="1" as="geometry" />
        </mxCell>
      </root>
    </mxGraphModel>
  </diagram>
</mxfile>
